<?xml version="1.0" encoding="utf-8"?>
<!-- Generator: Adobe Illustrator 17.1.0, SVG Export Plug-In . SVG Version: 6.00 Build 0)  -->
<!DOCTYPE svg PUBLIC "-//W3C//DTD SVG 1.1//EN" "http://www.w3.org/Graphics/SVG/1.1/DTD/svg11.dtd">
<svg version="1.1" id="Layer_1" xmlns="http://www.w3.org/2000/svg" xmlns:xlink="http://www.w3.org/1999/xlink" x="0px" y="0px"
	 viewBox="0 0 126 126" enable-background="new 0 0 126 126" xml:space="preserve">
<g>
	<path fill="#FFFFFF" d="M113.5,57.5L105,46.2l-2.5-14c-0.8-4.3-4.3-7.7-8.6-8.3l-14.1-2l-11.7-8.1c-2.9-2-6.6-2.4-9.9-1
		c-0.7,0.3-1.4,0.7-2,1.2l-11.4,8.5l-14,2.5c-0.8,0.1-1.5,0.4-2.3,0.7c-3.2,1.4-5.5,4.4-6,7.9l-2,14.1l-8.1,11.7
		c-2.5,3.6-2.4,8.4,0.2,12l8.5,11.4l2.5,14c0.8,4.3,4.3,7.7,8.6,8.3l14.1,2l11.7,8.1c2.9,2,6.7,2.4,9.9,1c0.7-0.3,1.4-0.7,2-1.2
		l11.4-8.5l14-2.5c0.8-0.1,1.5-0.4,2.3-0.7c3.2-1.4,5.5-4.4,6-7.9l2-14.1l8.1-11.7C116.3,65.8,116.2,61,113.5,57.5z M63.1,101.8
		c-20.6,0-37.4-16.8-37.4-37.4s16.8-37.4,37.4-37.4s37.4,16.8,37.4,37.4S83.7,101.8,63.1,101.8z"/>
	<path fill="#FFFFFF" d="M63.1,30.6c-18.7,0-33.8,15.2-33.8,33.8c0,18.7,15.2,33.8,33.8,33.8s33.8-15.2,33.8-33.8
		C96.9,45.8,81.7,30.6,63.1,30.6z M73.6,64.5h-6.9c0,11,0,24.5,0,24.5H56.5c0,0,0-13.4,0-24.5h-4.8v-8.7h4.8v-5.6
		c0-4,1.9-10.3,10.3-10.3l7.5,0v8.4c0,0-4.6,0-5.5,0s-2.2,0.4-2.2,2.4v5.1h7.8L73.6,64.5z"/>
</g>
</svg>
