<?xml version="1.0" encoding="utf-8"?>
<!-- Generator: Adobe Illustrator 17.1.0, SVG Export Plug-In . SVG Version: 6.00 Build 0)  -->
<!DOCTYPE svg PUBLIC "-//W3C//DTD SVG 1.1//EN" "http://www.w3.org/Graphics/SVG/1.1/DTD/svg11.dtd">
<svg version="1.1" id="Layer_1" xmlns="http://www.w3.org/2000/svg" xmlns:xlink="http://www.w3.org/1999/xlink" x="0px" y="0px"
	 viewBox="0 0 216 216" enable-background="new 0 0 216 216" xml:space="preserve">
<path fill="#F06822" d="M108,17.3c-50.1,0-90.7,40.6-90.7,90.7c0,50.1,40.6,90.7,90.7,90.7s90.7-40.6,90.7-90.7
	C198.7,57.9,158.1,17.3,108,17.3z M90.5,174c-9.9,4.2-17.7-0.1-25.1-4.5c-0.1-0.1-0.2-0.1-0.4-0.2c0,0,0,0,0,0
	c-0.7-0.4-1.6-0.7-3.3-1.2c0,0,0,0,0,0c0,0,0,0,0,0c-1-0.2-2.2-0.1-3.8,0.1c-0.1,0-0.2,0-0.2-0.1c0,0,0,0,0-0.1c0-0.1,0-0.2,0.1-0.3
	c4.4-3.8,3-9.4,1.7-12.4c-2-4.7-2.1-8.9-0.4-12.5c2.9-6.1,10.2-8.9,13.3-9.8h0c0,0,0,0,0,0c0,0,0,0,0.1,0c0.1,0,0.6-0.1,0.7-0.2
	c0.8-0.2,1.4-0.4,1.5-0.4c26-4.8,40-15.6,53-30.6c0.1-0.1,0.2-0.1,0.3-0.1c0.1,0,0.2,0.1,0.2,0.2c2.6,20.5-4.3,29.2-10.7,34.5
	c-0.2,9.9-5.6,17.7-15.6,22.4C101.5,165.1,97.1,171.1,90.5,174z M128.2,137.9c1.9,9.8-2.7,20.7-11.9,27.5
	c-6.2,4.6-12.3,6.3-18.4,6.4c3.4-3.2,5.7-7.3,6.2-11.7c4.8-2.5,8.6-5.6,11.2-9.4c2.7-3.9,4.2-8.4,4.5-13.4c2.7-2.4,6.2-6,8.6-11.8
	c2.7-6.5,3.4-14.4,2.1-24.1c-0.1-0.9-0.7-1.7-1.6-2.1l-0.1,0l-0.1,0c-1-0.3-2,0-2.7,0.8c-12.6,14.5-26.1,25.1-51.6,29.9
	c-0.1,0-0.2,0-2.1,0.5l-0.3,0.1l0,0l0,0l0,0l0,0l0,0c-1.8,0.5-4.6,1.5-7.3,3.2c-3.1,1.9-5.5,4.2-6.9,6.8c-1.6-4-2-8-1.1-11.9
	c2.2-10.4,12.6-17.4,17-19.9c0,0,0,0,0,0c0,0,0,0,0,0c0,0,0,0,0,0c0,0,0,0,0,0c0.2-0.1,0.8-0.4,1.1-0.6c1.2-0.7,2.1-1.1,2.2-1.1
	c38.4-16.9,56-38.5,70.7-66.4c0.1-0.1,0.2-0.2,0.4-0.2c0.2,0,0.3,0.1,0.3,0.3c11.5,30.6,3.9,46.6-4,57.1
	C147.5,113.1,142,127,128.2,137.9z"/>
</svg>
