<?xml version="1.0" encoding="utf-8"?>
<!-- Generator: Adobe Illustrator 17.1.0, SVG Export Plug-In . SVG Version: 6.00 Build 0)  -->
<!DOCTYPE svg PUBLIC "-//W3C//DTD SVG 1.1//EN" "http://www.w3.org/Graphics/SVG/1.1/DTD/svg11.dtd">
<svg version="1.1" id="Layer_1" xmlns="http://www.w3.org/2000/svg" xmlns:xlink="http://www.w3.org/1999/xlink" x="0px" y="0px"
	 viewBox="0 0 216 216" enable-background="new 0 0 216 216" xml:space="preserve">
<g>
	<path fill="#F06822" d="M79.5,108.2h74.9c0.5,0,0.8-0.4,0.8-0.8s-0.4-0.8-0.8-0.8H79.5c-0.5,0-0.8,0.4-0.8,0.8S79,108.2,79.5,108.2
		z"/>
	<path fill="#F06822" d="M142.4,78.7l0.1,0c2.5,0,5.8-1.6,5.9-3.3c0-0.5-0.3-0.9-0.8-0.9l-0.1,0c-0.4,0-0.8,0.3-0.8,0.8
		c-0.1,0.4-2.2,1.8-4.2,1.8c0,0-0.1,0-0.1,0c-2,0-4.1-1.4-4.6-2.5c-0.2-0.4-0.7-0.6-1.1-0.5c-0.2,0.1-0.4,0.2-0.5,0.4
		c-0.1,0.2-0.1,0.4,0,0.6C137.1,77,139.9,78.7,142.4,78.7z"/>
	<path fill="#F06822" d="M137.5,80.5c1.6,0.9,3.5,1.4,5.5,1.4c0.6,0,1.2,0,1.7-0.1c1.8-0.2,3.2-0.8,4.2-1.7c2.1-1.7,2.8-4.9,1.8-7.7
		c-0.8-2.3-2.7-4.3-5.4-5.7c-2.3-1.2-4.8-1.8-7.2-2.4c-0.4-0.1-0.9,0.2-1,0.6c-0.1,0.2,0,0.4,0.1,0.6c0.1,0.2,0.3,0.3,0.5,0.4
		c0.6,0.1,1.1,0.3,1.7,0.4c-1.4,0.1-2.6,0.5-3.6,1.2c-2.1,1.5-3.2,4.2-2.8,6.9C133.5,77,135.2,79.2,137.5,80.5z M136.8,69
		c0.9-0.6,2.1-1,3.5-1c0.7,0,1.3,0.1,2.1,0.2c0.4,0.1,0.8-0.2,1-0.6c0.4,0.2,0.8,0.4,1.2,0.6c2.3,1.2,3.9,2.9,4.6,4.8
		c0.8,2.1,0.3,4.6-1.3,5.8c-0.8,0.7-1.9,1.1-3.4,1.3c-2.3,0.3-4.5-0.1-6.2-1c-1.9-1.1-3.2-2.9-3.6-4.8
		C134.4,72.2,135.3,70.1,136.8,69z"/>
	<path fill="#F06822" d="M140.1,72.4c0.7,0.3,1.5-0.2,1.5-0.9c0-0.5-0.4-0.9-0.9-1s-1-0.1-1.2,0.4C139.2,71.4,139.4,72.2,140.1,72.4
		z"/>
	<path fill="#F06822" d="M154.3,151.4h-20.6c-0.5,0-0.8,0.4-0.8,0.8s0.4,0.8,0.8,0.8h20.6c0.5,0,0.8-0.4,0.8-0.8
		S154.8,151.4,154.3,151.4z"/>
	<path fill="#F06822" d="M144,72.9c0.5,0.2,1.1-0.1,1.3-0.5c0.3-0.6,0-1.5-0.7-1.7c-0.7-0.2-1.4,0.3-1.5,1
		C143.1,72.3,143.5,72.8,144,72.9z"/>
	<path fill="#F06822" d="M79.5,138.1h74.9c0.5,0,0.8-0.4,0.8-0.8c0-0.5-0.4-0.8-0.8-0.8H79.5c-0.5,0-0.8,0.4-0.8,0.8
		C78.6,137.8,79,138.1,79.5,138.1z"/>
	<path fill="#F06822" d="M79.5,130.6h74.9c0.5,0,0.8-0.4,0.8-0.8s-0.4-0.8-0.8-0.8H79.5c-0.5,0-0.8,0.4-0.8,0.8S79,130.6,79.5,130.6
		z"/>
	<path fill="#F06822" d="M79.5,145.6h74.9c0.5,0,0.8-0.4,0.8-0.8c0-0.5-0.4-0.8-0.8-0.8H79.5c-0.5,0-0.8,0.4-0.8,0.8
		C78.6,145.2,79,145.6,79.5,145.6z"/>
	<path fill="#F06822" d="M108,17.3c-50.1,0-90.7,40.6-90.7,90.7c0,50.1,40.6,90.7,90.7,90.7s90.7-40.6,90.7-90.7
		C198.7,57.9,158.1,17.3,108,17.3z M60,47.1V154h-3.9V42.2H142V46H61C60.4,46,60,46.5,60,47.1z M65.9,53v106.9h-3.9V48.1H148V52H67
		C66.4,52,65.9,52.5,65.9,53z M71.9,59v106.9H68V54.1H154V58h-81C72.4,58,71.9,58.4,71.9,59z M159.9,171.9H74V60h85.9V171.9z"/>
	<path fill="#F06822" d="M79.5,123.1h74.9c0.5,0,0.8-0.4,0.8-0.8c0-0.5-0.4-0.8-0.8-0.8H79.5c-0.5,0-0.8,0.4-0.8,0.8
		C78.6,122.8,79,123.1,79.5,123.1z"/>
	<path fill="#F06822" d="M79.5,115.7h74.9c0.5,0,0.8-0.4,0.8-0.8s-0.4-0.8-0.8-0.8H79.5c-0.5,0-0.8,0.4-0.8,0.8S79,115.7,79.5,115.7
		z"/>
</g>
</svg>
