<?xml version="1.0" encoding="utf-8"?>
<!-- Generator: Adobe Illustrator 17.1.0, SVG Export Plug-In . SVG Version: 6.00 Build 0)  -->
<!DOCTYPE svg PUBLIC "-//W3C//DTD SVG 1.1//EN" "http://www.w3.org/Graphics/SVG/1.1/DTD/svg11.dtd">
<svg version="1.1" id="Layer_1" xmlns="http://www.w3.org/2000/svg" xmlns:xlink="http://www.w3.org/1999/xlink" x="0px" y="0px"
	 viewBox="0 0 216 216" enable-background="new 0 0 216 216" xml:space="preserve">
<path fill="#F06822" d="M108,17.3c-50.1,0-90.7,40.6-90.7,90.7c0,50.1,40.6,90.7,90.7,90.7s90.7-40.6,90.7-90.7
	C198.7,57.9,158.1,17.3,108,17.3z M72.3,162.1c-0.1,0-0.3,0.1-0.7,0.1c-1.9,0-6.3-0.8-11.1-2.1c-6.3-1.7-11.3-3.5-12-4.4l0,0V68.8
	l39.5-27.2c0.2-0.1,0.6,0,0.6,0.3v2L50.4,70.3L50,70.6l1.3,0.5c2.3,0.9,5.6,2,9.1,2.9c4.8,1.3,9.2,2.1,11.2,2.1v0.1h0.8V162.1z
	 M98.6,168.3c-0.1,0-0.3,0.1-0.7,0.1c-1.9,0-6.3-0.8-11.1-2.1c-6.3-1.7-11.3-3.5-12-4.4l0,0V75l39.5-27.2c0.2-0.1,0.6,0,0.6,0.3v2
	L76.7,76.4l-0.4,0.3l1.3,0.5c2.3,0.9,5.6,2,9.1,2.9c4.8,1.3,9.2,2.1,11.2,2.1v0.1h0.8V168.3z M124.8,174.4c-0.1,0-0.3,0.1-0.7,0.1
	c-1.9,0-6.3-0.8-11.1-2.1c-6.3-1.7-11.3-3.5-12-4.4V81.2l39.5-27.2c0.2-0.1,0.6,0,0.6,0.3v2l-38.3,26.4l-0.4,0.3l1.3,0.5
	c2.4,0.9,5.6,2,9.1,2.9c4.8,1.3,9.2,2.1,11.2,2.1v0.1h0.8V174.4z M167.4,144.2c0,0.8-0.4,1.6-1.1,2l-39,26.9V87.3l39.5-27.2
	c0.2-0.1,0.6,0,0.6,0.3V144.2z"/>
</svg>
