<?xml version="1.0" encoding="utf-8"?>
<!-- Generator: Adobe Illustrator 17.1.0, SVG Export Plug-In . SVG Version: 6.00 Build 0)  -->
<!DOCTYPE svg PUBLIC "-//W3C//DTD SVG 1.1//EN" "http://www.w3.org/Graphics/SVG/1.1/DTD/svg11.dtd">
<svg version="1.1" id="Layer_1" xmlns="http://www.w3.org/2000/svg" xmlns:xlink="http://www.w3.org/1999/xlink" x="0px" y="0px"
	 viewBox="0 0 216 216" enable-background="new 0 0 216 216" xml:space="preserve">
<g>
	<path fill="#F06822" d="M93.2,73.2c-0.2,0-0.5,0-0.7,0l-0.1,0.4L92,75.1l2,35.2c0.9,0,1.9,0.1,2.9,0.1l-2.1-37.6
		C94.3,73,93.8,73.1,93.2,73.2z"/>
	<path fill="#F06822" d="M91,106.1l0.5,4c0.2,0.1,0.8,0.1,1.1,0.2l-0.2-4.2C91.9,106.1,91.2,106.1,91,106.1z"/>
	<path fill="#F06822" d="M84.9,72.2c-0.2,0.1-0.5,0.1-0.8,0.1c-0.5,0-1,0-1.4-0.1l4.3,37.6c0.9,0.1,1.9,0.2,2.9,0.2l-4.1-35.9
		L84.9,72.2z"/>
	<path fill="#F06822" d="M98.4,64.3L96.3,59l-1.5,5.5c0.4,0.2,1.1,0.4,1.7,0.3C97.2,64.8,97.9,64.5,98.4,64.3z"/>
	<path fill="#F06822" d="M80.3,72.7c-0.5,0-1,0-1.4-0.1l4.2,36.8c0.9,0.1,1.8,0.2,2.9,0.3l-4.3-37.4C81.4,72.6,80.9,72.7,80.3,72.7z
		"/>
	<path fill="#F06822" d="M76.6,73.1c-0.2,0-0.5,0-0.7,0l-0.1,0.4l-0.3,1.7l3.8,33.6c0.7,0.2,1.7,0.4,2.9,0.5L78,72.7
		C77.6,72.9,77.1,73.1,76.6,73.1z"/>
	<path fill="#F06822" d="M79.4,64.6c0.7-0.1,1.4-0.4,1.8-0.6l-2.4-5.2l-1.2,5.6C78,64.5,78.7,64.7,79.4,64.6z"/>
	<path fill="#F06822" d="M108,17.3c-50.1,0-90.7,40.6-90.7,90.7c0,50.1,40.6,90.7,90.7,90.7s90.7-40.6,90.7-90.7
		C198.7,57.9,158.1,17.3,108,17.3z M142.1,34.4l-12.4,72c3.5,0.7,3.5,1.4,3.5,1.8v74.3c0,0.5,0,1.6-8.5,2.5
		c-5.2,0.5-12.2,0.8-19.6,0.8s-14.4-0.3-19.6-0.8c-8.5-0.9-8.5-2-8.5-2.5v-74.3c0-0.2,0-0.6,0.8-0.9l-3.7-32.1c0-0.1,0-0.2,0-0.3
		L77.7,57c0.1-0.4,0.4-0.7,0.9-0.8c0.4,0,0.8,0.2,1,0.6l7.7,16.8c0,0.1,0.1,0.2,0.1,0.3l3.5,30.8c0.4,0,0.9-0.1,1.4-0.1L90.5,75
		c0-0.1,0-0.2,0-0.3l4.7-17.7c0.1-0.4,0.5-0.7,0.9-0.7c0.4,0,0.8,0.2,1,0.6l6.7,17.1c0,0.1,0.1,0.2,0.1,0.3l1.7,30.5
		c1.5,0,3.1,0,4.6,0l0-0.1l0.8,0.1l8.4,1.2l3.8,0.6l0-0.3l0.1-0.6l-3.8-0.6l-9.2-1.4l0.9-5.4l6.3,0.9l0.2-0.9l-6.3-0.9l0.9-5.4
		l6.3,0.9l0.2-0.9l-6.3-0.9l0.9-5.4l6.3,0.9l0.2-0.9l-6.3-0.9l0.9-5.4l13,1.9l0.2-0.9l-13-1.9l0.9-5.4l6.3,0.9l0.2-0.9l-6.3-0.9
		l0.9-5.4l6.3,0.9l0.2-0.9l-6.3-0.9l0.9-5.4l6.3,0.9l0.2-0.9l-6.3-0.9l0.9-5.4l13,1.9l0.2-0.9l-13-1.9l0.9-5.4l6.3,0.9l0.2-0.9
		l-6.3-0.9l0.9-5.4l6.3,0.9l0.2-0.9l-6.3-0.9l0.9-5.4l6.3,0.9l0.2-0.9l-6.3-0.9l0.7-3.8c0.1-0.8,0.8-1.3,1.7-1.3c0.1,0,0.2,0,0.3,0
		l15.9,2.3C141.6,32.7,142.2,33.5,142.1,34.4z"/>
	<path fill="#F06822" d="M129.2,109.1c0.1,0,0.2,0,0.2,0c0.1,0,0.2,0,0.3-0.1c0.1,0,0.2,0,0.2,0c0.1,0,0.2,0,0.3-0.1
		c0.1,0,0.1,0,0.2,0c0.1,0,0.1,0,0.2-0.1c0.1,0,0.1,0,0.2,0c0.1,0,0.1,0,0.2-0.1c0.1,0,0.1,0,0.2,0c0.1,0,0.1,0,0.2-0.1
		c0,0,0.1,0,0.1,0c0,0,0.1,0,0.1-0.1c0,0,0.1,0,0.1,0c0,0,0.1,0,0.1-0.1c0,0,0.1,0,0.1,0c0,0,0.1,0,0.1,0c0,0,0,0,0.1,0c0,0,0,0,0,0
		c0,0,0,0,0,0c-0.2-0.3-1.1-0.6-2.7-0.9L129.2,109.1z"/>
	<path fill="#F06822" d="M110,105.8c-1.5,0-3.2,0-4.4,0l0.3,4.8c-0.1,0,0.2,0,0.6,0c0.2,0,0.5,0,0.7,0c0.3,0,0.5,0,0.8,0
		c0.2,0,0.4,0,0.7,0c0.3,0,0.5,0,0.8,0c0.2,0,0.4,0,0.6,0c0.3,0,0.5,0,0.8,0c0.2,0,0.4,0,0.6,0c0,0,0,0,0,0l-2.3-0.3L110,105.8z"/>
	<path fill="#F06822" d="M97,73c-0.5,0-1,0-1.4-0.1l2.1,37.6c0.9,0,1.9,0,2.9,0.1l-2.1-37.9C98.1,72.8,97.6,72.9,97,73z"/>
	<path fill="#F06822" d="M101.7,72.7c-0.3,0.1-0.5,0.1-0.8,0.1c-0.5,0-1,0-1.4-0.1l2.1,37.9c0.9,0,1.9,0,2.9,0l-2-35.9L101.7,72.7z"
		/>
</g>
</svg>
