<?xml version="1.0" encoding="utf-8"?>
<!-- Generator: Adobe Illustrator 17.1.0, SVG Export Plug-In . SVG Version: 6.00 Build 0)  -->
<!DOCTYPE svg PUBLIC "-//W3C//DTD SVG 1.1//EN" "http://www.w3.org/Graphics/SVG/1.1/DTD/svg11.dtd">
<svg version="1.1" id="Layer_1" xmlns="http://www.w3.org/2000/svg" xmlns:xlink="http://www.w3.org/1999/xlink" x="0px" y="0px"
	 viewBox="0 0 126 126" enable-background="new 0 0 126 126" xml:space="preserve">
<g>
	<path fill="#FFFFFF" d="M113.5,57.5L105,46.2l-2.5-14c-0.8-4.3-4.3-7.7-8.6-8.3l-14.1-2l-11.7-8.1c-2.9-2-6.6-2.4-9.9-1
		c-0.7,0.3-1.4,0.7-2,1.2l-11.4,8.5l-14,2.5c-0.8,0.1-1.5,0.4-2.3,0.7c-3.2,1.4-5.5,4.4-6,7.9l-2,14.1l-8.1,11.7
		c-2.5,3.6-2.4,8.4,0.2,12l8.5,11.4l2.5,14c0.8,4.3,4.3,7.7,8.6,8.3l14.1,2l11.7,8.1c2.9,2,6.7,2.4,9.9,1c0.7-0.3,1.4-0.7,2-1.2
		l11.4-8.5l14-2.5c0.8-0.1,1.5-0.4,2.3-0.7c3.2-1.4,5.5-4.4,6-7.9l2-14.1l8.1-11.7C116.3,65.8,116.2,61,113.5,57.5z M63.1,101.8
		c-20.6,0-37.4-16.8-37.4-37.4s16.8-37.4,37.4-37.4s37.4,16.8,37.4,37.4S83.7,101.8,63.1,101.8z"/>
	<path fill="#FFFFFF" d="M63.1,30.6c-18.7,0-33.8,15.2-33.8,33.8c0,18.7,15.2,33.8,33.8,33.8s33.8-15.2,33.8-33.8
		C96.9,45.8,81.7,30.6,63.1,30.6z M88.6,63L88.6,63c-1.2,1.7-3.2,2.4-6,2.3c-0.4,2.2-1.5,4.5-3.2,6.8c-3.7,4.5-8.2,7.6-13.6,9h-0.1
		c-5.5,1.5-11,1.4-16.5-0.4c-4.8-1.8-8.7-4.7-11.6-8.7c2.9,2.3,5.6,3.4,8.1,3.5l0.1,0c4.1,0.3,7.6-1,10.6-3.9c0,0,0,0,0,0l-0.1-0.1
		c-1.7,0.1-2.8-0.4-3.5-1.5c-0.2-0.7,0-1.4,0.5-1.9c0.3-0.4,0.8-0.7,1.4-1c-3,0.1-5-1-6.2-3.1c0.9-1,2-1.4,3.4-1.3l0,0
		c-3.5-1-5.4-2.7-5.6-5.2c0.9-0.3,1.8-0.4,2.8-0.4v0c-2.8-1.6-4.1-3.7-4.1-6.4c2.5,0.8,5,1.8,7.5,3c2.3,1,4.2,1.9,5.9,3
		c1.4,0.8,2.6,1.8,3.6,3l0,0l0.3-0.2c0.7-2.6,1.8-5.1,3.5-7.7l0-0.1c0.6-0.9,1.5-1.9,2.5-3c0.5-0.5,1.1-1,1.7-1.4
		c0.1,0.1-0.1,0.5-0.6,1.4c1.4-1.2,2.7-1.8,3.9-1.8c0.3,0.3-0.2,0.8-1.4,1.5c1-0.4,2.1-0.6,3.2-0.7c0.5,0.1,0.7,0.3,0.5,0.8
		c-0.4,0.6-1.8,1.1-4.1,1.6c0,0,0,0,0,0l0.1,0.2c2.6-0.1,4.8,0.7,6.7,2.4c0,0,0.1,0.1,0.1,0.1c2.3,2.2,3.6,4.6,3.9,7.2
		c2,0.7,4,0.7,6.1-0.1c-0.6,1.5-2.3,2.4-5.2,2.7c0,0,0,0,0,0v0.3C85.8,63.3,87.7,63.3,88.6,63z"/>
</g>
</svg>
