<?xml version="1.0" encoding="utf-8"?>
<!-- Generator: Adobe Illustrator 17.1.0, SVG Export Plug-In . SVG Version: 6.00 Build 0)  -->
<!DOCTYPE svg PUBLIC "-//W3C//DTD SVG 1.1//EN" "http://www.w3.org/Graphics/SVG/1.1/DTD/svg11.dtd">
<svg version="1.1" id="Layer_1" xmlns="http://www.w3.org/2000/svg" xmlns:xlink="http://www.w3.org/1999/xlink" x="0px" y="0px"
	 viewBox="0 0 126 126" enable-background="new 0 0 126 126" xml:space="preserve">
<g>
	<path fill="#FFFFFF" d="M113.5,57.5L105,46.2l-2.5-14c-0.8-4.3-4.3-7.7-8.6-8.3l-14.1-2l-11.7-8.1c-2.9-2-6.6-2.4-9.9-1
		c-0.7,0.3-1.4,0.7-2,1.2l-11.4,8.5l-14,2.5c-0.8,0.1-1.5,0.4-2.3,0.7c-3.2,1.4-5.5,4.4-6,7.9l-2,14.1l-8.1,11.7
		c-2.5,3.6-2.4,8.4,0.2,12l8.5,11.4l2.5,14c0.8,4.3,4.3,7.7,8.6,8.3l14.1,2l11.7,8.1c2.9,2,6.7,2.4,9.9,1c0.7-0.3,1.4-0.7,2-1.2
		l11.4-8.5l14-2.5c0.8-0.1,1.5-0.4,2.3-0.7c3.2-1.4,5.5-4.4,6-7.9l2-14.1l8.1-11.7C116.3,65.8,116.2,61,113.5,57.5z M63.1,101.8
		c-20.6,0-37.4-16.8-37.4-37.4s16.8-37.4,37.4-37.4s37.4,16.8,37.4,37.4S83.7,101.8,63.1,101.8z"/>
	<path fill="#FFFFFF" d="M67.7,69.5c-0.3,0-0.6,0.1-0.9,0.2c-0.3,0.2-0.6,0.4-0.9,0.7v-4.3h-2v13.5h2v-0.8c0.3,0.3,0.5,0.5,0.8,0.7
		c0.3,0.1,0.6,0.2,1,0.2c0.6,0,1-0.2,1.3-0.6c0.3-0.4,0.5-0.9,0.5-1.6V72c0-0.8-0.2-1.4-0.5-1.9C68.8,69.7,68.3,69.5,67.7,69.5z
		 M67.6,77.2c0,0.3-0.1,0.5-0.2,0.7c-0.1,0.1-0.3,0.2-0.5,0.2c-0.2,0-0.3,0-0.5-0.1c-0.2-0.1-0.3-0.2-0.5-0.4v-6.2
		c0.1-0.1,0.3-0.2,0.4-0.3c0.1-0.1,0.3-0.1,0.4-0.1c0.3,0,0.5,0.1,0.6,0.3c0.1,0.2,0.2,0.4,0.2,0.8L67.6,77.2L67.6,77.2z"/>
	<path fill="#FFFFFF" d="M60.4,77.2c-0.2,0.2-0.4,0.4-0.6,0.5c-0.2,0.1-0.4,0.2-0.6,0.2c-0.2,0-0.3,0-0.4-0.2
		c-0.1-0.1-0.1-0.3-0.1-0.5v-7.6h-2v8.3c0,0.6,0.1,1,0.3,1.3c0.2,0.3,0.6,0.4,1,0.4c0.4,0,0.8-0.1,1.2-0.3c0.4-0.2,0.8-0.5,1.1-0.9
		v1.1h2v-9.9h-2C60.4,69.6,60.4,77.2,60.4,77.2z"/>
	<polygon fill="#FFFFFF" points="49,68.1 51.3,68.1 51.3,79.6 53.5,79.6 53.5,68.1 55.9,68.1 55.9,66.1 49,66.1 	"/>
	<path fill="#FFFFFF" d="M62.7,58.5c0.3,0,0.5-0.1,0.7-0.3c0.2-0.2,0.3-0.4,0.3-0.7v-6c0-0.2-0.1-0.4-0.3-0.6
		c-0.2-0.1-0.4-0.2-0.7-0.2c-0.3,0-0.5,0.1-0.7,0.2c-0.2,0.2-0.3,0.3-0.3,0.6v6c0,0.3,0.1,0.5,0.2,0.7
		C62.2,58.4,62.4,58.5,62.7,58.5z"/>
	<path fill="#FFFFFF" d="M63.1,30.6c-18.7,0-33.8,15.2-33.8,33.8c0,18.7,15.2,33.8,33.8,33.8c18.7,0,33.8-15.2,33.8-33.8
		C96.9,45.8,81.7,30.6,63.1,30.6z M67.8,49.2h2.2v8.4c0,0.3,0.1,0.4,0.1,0.6c0.1,0.1,0.2,0.2,0.5,0.2c0.2,0,0.4-0.1,0.6-0.2
		c0.2-0.2,0.5-0.3,0.7-0.6v-8.3h2.2v11H72v-1.2c-0.4,0.4-0.8,0.8-1.3,1c-0.4,0.2-0.9,0.3-1.3,0.3c-0.5,0-0.9-0.2-1.2-0.5
		c-0.3-0.3-0.4-0.8-0.4-1.5L67.8,49.2L67.8,49.2z M59.5,51.7c0-0.9,0.3-1.5,0.9-2c0.6-0.5,1.4-0.8,2.4-0.8c0.9,0,1.7,0.3,2.3,0.8
		c0.6,0.5,0.9,1.2,0.9,2v5.7c0,0.9-0.3,1.7-0.9,2.2c-0.6,0.5-1.4,0.8-2.4,0.8c-1,0-1.8-0.3-2.4-0.8c-0.6-0.6-0.9-1.3-0.9-2.2
		L59.5,51.7L59.5,51.7z M53.4,45.3l1.6,5.9h0.2l1.6-5.9h2.6l-2.9,8.7v6.2h-2.5v-5.9l-3-9L53.4,45.3L53.4,45.3z M82.7,76.5
		c0,4-3.2,7.2-7.2,7.2H50.6c-4,0-7.2-3.2-7.2-7.2v-5.8c0-4,3.2-7.2,7.2-7.2h24.9c4,0,7.2,3.2,7.2,7.2V76.5z"/>
	<path fill="#FFFFFF" d="M73.7,69.4c-0.9,0-1.6,0.3-2.2,0.8c-0.6,0.5-0.8,1.2-0.8,2.1v4.5c0,1,0.3,1.7,0.8,2.3
		c0.5,0.5,1.2,0.8,2.1,0.8c1,0,1.7-0.3,2.2-0.8c0.5-0.5,0.8-1.3,0.8-2.3v-0.5h-2v0.5c0,0.6-0.1,1-0.2,1.1c-0.1,0.2-0.4,0.3-0.7,0.3
		c-0.3,0-0.5-0.1-0.7-0.3c-0.1-0.2-0.2-0.6-0.2-1.1v-1.9h3.8v-2.5c0-0.9-0.2-1.7-0.7-2.2C75.3,69.6,74.6,69.4,73.7,69.4z M74.5,73.3
		h-1.8v-1c0-0.4,0.1-0.7,0.2-0.9c0.1-0.2,0.4-0.3,0.7-0.3c0.3,0,0.5,0.1,0.7,0.3c0.1,0.2,0.2,0.5,0.2,0.9V73.3z"/>
</g>
</svg>
