<?xml version="1.0" encoding="utf-8"?>
<!-- Generator: Adobe Illustrator 17.1.0, SVG Export Plug-In . SVG Version: 6.00 Build 0)  -->
<!DOCTYPE svg PUBLIC "-//W3C//DTD SVG 1.1//EN" "http://www.w3.org/Graphics/SVG/1.1/DTD/svg11.dtd">
<svg version="1.1" id="Layer_1" xmlns="http://www.w3.org/2000/svg" xmlns:xlink="http://www.w3.org/1999/xlink" x="0px" y="0px"
	 viewBox="0 0 360 156.97" enable-background="new 0 0 360 156.97" xml:space="preserve">
<path fill="#FFFFFF" d="M272.721,67.539c-17.442,0-31.581,16.317-31.581,36.445c0,20.128,14.139,36.445,31.581,36.445
	c17.442,0,31.581-16.317,31.581-36.445C304.302,83.856,290.162,67.539,272.721,67.539z M272.721,121.436
	c-6.639,0-12.021-7.814-12.021-17.452c0-9.639,5.382-17.452,12.021-17.452c6.639,0,12.02,7.814,12.02,17.452
	C284.741,113.622,279.359,121.436,272.721,121.436z"/>
<path fill="#FFFFFF" d="M181.122,134.405c-1.046-1.061-1.341-1.961-1.341-3.15v-27.261c0-23.304-9.656-36.434-31.581-36.435
	c-17.442,0-31.581,16.313-31.581,36.435s10.837,36.435,28.279,36.435c5.613,0,10.287-2.201,14.57-6.079
	c0.286,2.566,2.432,4.56,5.04,4.56c0,0,12.93,0,15.273,0C182.124,138.91,182.527,135.828,181.122,134.405z M159.432,111.359
	c0,0.405-0.096,0.808-0.297,1.158c-2.364,4.121-6.267,6.815-10.685,6.815c-7.214,0-13.063-7.177-13.063-16.031
	c0-8.854,5.848-16.031,13.063-16.031c1.152,0,2.269,0.183,3.333,0.527c4.629,1.497,7.649,6.024,7.649,10.949V111.359z"/>
<path fill="#FFFFFF" d="M347.119,67.311c-3.861,0.037-8.367,1.925-10.799,4.943c-2.617,3.248-3.492,5.086-4.835,7.485V68.632
	c0-1.538-1.823-2.348-2.965-1.318l-15.619,14.102c-1.298,1.172-2.04,2.84-2.04,4.589l0,51.162c0,0.962,0.78,1.742,1.742,1.742
	h16.925c1.081,0,1.957-0.876,1.957-1.957l0-37.513c0.035-4.221,0.272-10.429,1.593-13.482c0.259-0.599,1.119-0.613,1.379-0.015
	c2.053,4.712,6.752,8.007,12.22,8.007c7.589,0,13.697-6.346,13.305-14.021C359.633,73.091,353.965,67.245,347.119,67.311z"/>
<path fill="#FFFFFF" d="M46.071,109.683c-0.002-1.059-0.861-1.916-1.92-1.916H27.368c-1.062,0-1.922,0.862-1.92,1.924l0.009,4.393
	h0.023v5.229c0,1.305-1.091,2.363-2.436,2.363s-2.436-1.058-2.436-2.363v-5.229h0.016V75.819c0.008-0.008,0.013-0.013,0.021-0.021
	h19.539c1.052,0,1.905-0.853,1.905-1.905V58.968c0-1.052-0.853-1.905-1.905-1.905H20.644c-0.008-0.008-0.013-0.012-0.021-0.021
	V17.811c0-1.538-1.823-2.348-2.965-1.318L2.04,30.595C0.741,31.767,0,33.435,0,35.184v81.702c0,12.932,10.584,23.773,23.513,23.515
	c12.51-0.25,22.574-10.469,22.574-23.039L46.071,109.683z"/>
<path fill="#FFFFFF" d="M234.564,109.683c-0.002-1.059-0.861-1.916-1.92-1.916h-16.783c-1.062,0-1.922,0.862-1.92,1.924l0.009,4.393
	h0.023v5.229c0,1.305-1.091,2.363-2.436,2.363c-1.346,0-2.436-1.058-2.436-2.363v-5.229h0.016V75.819
	c0.008-0.008,0.013-0.013,0.021-0.021h19.539c1.052,0,1.905-0.853,1.905-1.905V58.968c0-1.052-0.853-1.905-1.905-1.905h-19.539
	c-0.008-0.008-0.013-0.012-0.021-0.021V17.811c0-1.538-1.823-2.348-2.965-1.318l-15.619,14.102c-1.299,1.172-2.04,2.84-2.04,4.589
	v81.702c0,12.932,10.584,23.773,23.513,23.515c12.51-0.25,22.574-10.469,22.574-23.039L234.564,109.683z"/>
<path fill="#FFFFFF" d="M81.427,67.56c-17.456,0-28.781,15.987-28.781,35.674c0,19.703,11.26,35.676,27.124,35.676h25.323
	c0.998,0,1.808-0.809,1.808-1.808v-15.114c0-0.998-0.809-1.808-1.808-1.808H85.489c-5.651,0-10.693-4.825-11.93-10.009
	c-0.291-1.219,0.658-2.385,1.911-2.385h28.447c3.392,0,6.141-2.749,6.141-6.141v-7.344C110.059,78.561,98.905,67.56,81.427,67.56z
	 M89.362,92.145H75.237c-1.133,0-1.937-1.142-1.514-2.193c1.187-2.953,4.579-5.682,8.577-5.682s7.39,2.729,8.577,5.682
	C91.299,91.003,90.495,92.145,89.362,92.145z"/>
</svg>
